<svg width="30" height="30" viewBox="0 0 30 30" fill="none" xmlns="http://www.w3.org/2000/svg">
<g id="Settings" clip-path="url(#clip0_31_23)">
<path id="Settings button" d="M29.0567 9.76172C29.2442 10.2715 29.086 10.8398 28.6817 11.2031L26.1445 13.5117C26.209 13.998 26.2442 14.4961 26.2442 15C26.2442 15.5039 26.209 16.002 26.1445 16.4883L28.6817 18.7969C29.086 19.1602 29.2442 19.7285 29.0567 20.2383C28.7988 20.9355 28.4883 21.6035 28.1309 22.248L27.8555 22.7227C27.4688 23.3672 27.0352 23.9766 26.5606 24.5508C26.2149 24.9727 25.6406 25.1133 25.125 24.9492L21.8613 23.9121C21.0762 24.5156 20.209 25.0195 19.2832 25.4004L18.5508 28.7461C18.4336 29.2793 18.0235 29.7012 17.4844 29.7891C16.6758 29.9238 15.8438 29.9941 14.9942 29.9941C14.1445 29.9941 13.3125 29.9238 12.5039 29.7891C11.9649 29.7012 11.5547 29.2793 11.4375 28.7461L10.7051 25.4004C9.77931 25.0195 8.91212 24.5156 8.12697 23.9121L4.86916 24.9551C4.35353 25.1191 3.77931 24.9727 3.43361 24.5566C2.959 23.9824 2.52541 23.373 2.13869 22.7285L1.8633 22.2539C1.50587 21.6094 1.19533 20.9414 0.937515 20.2441C0.750015 19.7344 0.908218 19.166 1.31252 18.8027L3.84962 16.4941C3.78517 16.002 3.75002 15.5039 3.75002 15C3.75002 14.4961 3.78517 13.998 3.84962 13.5117L1.31252 11.2031C0.908218 10.8398 0.750015 10.2715 0.937515 9.76172C1.19533 9.06445 1.50587 8.39648 1.8633 7.75195L2.13869 7.27734C2.52541 6.63281 2.959 6.02344 3.43361 5.44922C3.77931 5.02734 4.35353 4.88672 4.86916 5.05078L8.13283 6.08789C8.91798 5.48438 9.78517 4.98047 10.711 4.59961L11.4434 1.25391C11.5606 0.720703 11.9707 0.298828 12.5098 0.210938C13.3184 0.0703125 14.1504 0 15 0C15.8496 0 16.6817 0.0703125 17.4902 0.205078C18.0293 0.292969 18.4395 0.714844 18.5567 1.24805L19.2891 4.59375C20.2149 4.97461 21.082 5.47852 21.8672 6.08203L25.1309 5.04492C25.6465 4.88086 26.2207 5.02734 26.5664 5.44336C27.041 6.01758 27.4746 6.62695 27.8613 7.27148L28.1367 7.74609C28.4942 8.39062 28.8047 9.05859 29.0625 9.75586L29.0567 9.76172ZM15 19.6875C16.2432 19.6875 17.4355 19.1936 18.3146 18.3146C19.1937 17.4355 19.6875 16.2432 19.6875 15C19.6875 13.7568 19.1937 12.5645 18.3146 11.6854C17.4355 10.8064 16.2432 10.3125 15 10.3125C13.7568 10.3125 12.5645 10.8064 11.6855 11.6854C10.8064 12.5645 10.3125 13.7568 10.3125 15C10.3125 16.2432 10.8064 17.4355 11.6855 18.3146C12.5645 19.1936 13.7568 19.6875 15 19.6875Z" fill="white"/>
</g>
<defs>
<clipPath id="clip0_31_23">
<rect width="30" height="30" fill="white"/>
</clipPath>
</defs>
</svg>
