<svg width="40" height="32" viewBox="0 0 40 32" fill="none" xmlns="http://www.w3.org/2000/svg">
<g id="Friends Tab" clip-path="url(#clip0_26_35)">
<path id="Vector" d="M6 8C6 5.87827 6.84285 3.84344 8.34315 2.34315C9.84344 0.842855 11.8783 0 14 0C16.1217 0 18.1566 0.842855 19.6569 2.34315C21.1571 3.84344 22 5.87827 22 8C22 10.1217 21.1571 12.1566 19.6569 13.6569C18.1566 15.1571 16.1217 16 14 16C11.8783 16 9.84344 15.1571 8.34315 13.6569C6.84285 12.1566 6 10.1217 6 8ZM0 30.1437C0 23.9875 4.9875 19 11.1438 19H16.8563C23.0125 19 28 23.9875 28 30.1437C28 31.1687 27.1687 32 26.1437 32H1.85625C0.83125 32 0 31.1687 0 30.1437ZM38.0812 32H29.4625C29.8 31.4125 30 30.7313 30 30V29.5C30 25.7062 28.3063 22.3 25.6375 20.0125C25.7875 20.0063 25.9312 20 26.0812 20H29.9188C35.4875 20 40 24.5125 40 30.0812C40 31.1437 39.1375 32 38.0812 32ZM27 16C25.0625 16 23.3125 15.2125 22.0438 13.9438C23.275 12.2812 24 10.225 24 8C24 6.325 23.5875 4.74375 22.8563 3.35625C24.0188 2.50625 25.45 2 27 2C30.8687 2 34 5.13125 34 9C34 12.8687 30.8687 16 27 16Z" fill="white"/>
</g>
<defs>
<clipPath id="clip0_26_35">
<rect width="40" height="32" fill="white"/>
</clipPath>
</defs>
</svg>
