<svg width="32" height="32" viewBox="0 0 32 32" fill="none" xmlns="http://www.w3.org/2000/svg">
<path id="Music Tab" d="M31.1938 0.397083C31.7 0.772044 32 1.37198 32 2.00316V6.50269V23.0009C32 25.7632 29.3125 28.0004 26 28.0004C22.6875 28.0004 20 25.7632 20 23.0009C20 20.2387 22.6875 18.0015 26 18.0015C26.7 18.0015 27.375 18.1015 28 18.2889V9.18991L12 13.9894V27.0005C12 29.7627 9.3125 32 6 32C2.6875 32 0 29.7627 0 27.0005C0 24.2383 2.6875 22.0011 6 22.0011C6.7 22.0011 7.375 22.101 8 22.2885V12.5021V8.00253C8 7.12137 8.58125 6.34021 9.425 6.08398L29.425 0.0846163C30.0312 -0.0966145 30.6875 0.0158736 31.1938 0.397083Z" fill="#D9D9D9"/>
</svg>
